<svg aria-hidden="true" style="position: absolute; width: 0; height: 0; overflow: hidden;" version="1.1" xmlns="http://www.w3.org/2000/svg" xmlns:xlink="http://www.w3.org/1999/xlink">
<defs>
<symbol id="icon-right-arrow" viewBox="0 0 24 24">
<title>right-arrow</title>
<path d="M8.578 16.359l4.594-4.594-4.594-4.594 1.406-1.406 6 6-6 6z"></path>
</symbol>
<symbol id="icon-arrow-up" viewBox="0 0 24 24">
<title>arrow-up</title>
<path d="M5.707 12.707l5.293-5.293v11.586c0 0.552 0.448 1 1 1s1-0.448 1-1v-11.586l5.293 5.293c0.391 0.391 1.024 0.391 1.414 0s0.391-1.024 0-1.414l-7-7c-0.002-0.002-0.003-0.003-0.005-0.005-0.095-0.093-0.203-0.164-0.319-0.212-0.245-0.101-0.522-0.101-0.767 0-0.118 0.049-0.228 0.121-0.324 0.217l-7 7c-0.391 0.391-0.391 1.024 0 1.414s1.024 0.391 1.414 0z"></path>
</symbol>
<symbol id="icon-close" viewBox="0 0 24 24">
<title>close</title>
<path d="M14.123 12l9.438-9.438c0.586-0.586 0.586-1.536 0-2.122s-1.536-0.586-2.122 0l-9.438 9.438-9.438-9.438c-0.586-0.586-1.536-0.586-2.122 0s-0.586 1.536 0 2.122l9.438 9.438-9.438 9.438c-0.586 0.586-0.586 1.536 0 2.122 0.293 0.293 0.677 0.439 1.061 0.439s0.768-0.147 1.061-0.44l9.438-9.438 9.438 9.438c0.293 0.293 0.677 0.44 1.061 0.44s0.768-0.147 1.061-0.44c0.586-0.586 0.586-1.536 0-2.122l-9.438-9.437z"></path>
</symbol>
<symbol id="icon-menu" viewBox="0 0 24 24">
<title>menu</title>
<path d="M23.031 11.031h-22.061c-0.535 0-0.969 0.434-0.969 0.969s0.434 0.969 0.969 0.969h22.061c0.535 0 0.969-0.434 0.969-0.969s-0.434-0.969-0.969-0.969z"></path>
<path d="M23.031 3.677h-22.061c-0.535 0-0.969 0.434-0.969 0.969s0.434 0.969 0.969 0.969h22.061c0.535 0 0.969-0.434 0.969-0.969s-0.434-0.969-0.969-0.969z"></path>
<path d="M23.031 18.384h-22.061c-0.535 0-0.969 0.434-0.969 0.969s0.434 0.969 0.969 0.969h22.061c0.535 0 0.969-0.434 0.969-0.969s-0.434-0.969-0.969-0.969z"></path>
</symbol>
<symbol id="icon-video" viewBox="0 0 32 32">
<title>video</title>
<path d="M16 0c-8.836 0-16 7.164-16 16s7.164 16 16 16 16-7.164 16-16-7.164-16-16-16zM10 24v-16l16.008 8-16.008 8z"></path>
</symbol>
</defs>
</svg>
